# xmcd
#
# Track frame offsets:
#	182
#	14990
#	30885
#	45987
#	64155
#	80565
#	93595
#	103927
#	120007
#	130812
#	150065
#	174502
#	188325
#	204875
#
# Disc length: 2939
#
# Revision: 2
# Processed by: cddbd v1.5.1PL0 Copyright (c) Steve Scherf et al.
# Submitted via: audiograbber 1.82.02
# Normalized: r1:DSETVAR1
#
DISCID=9e0b790e
DTITLE=Various Artist - Chicken Soup for the Country Soul
DYEAR=1900
DGENRE=Country
TTITLE0=Sawyer Brown - Thank God for You
TTITLE1=Randy Travis - Forever and Ever, Amen
TTITLE2=Kathy Mattea - Eighteen Wheels and a Dozen Roses
TTITLE3=Don Williams - I Believe in You
TTITLE4=Alabama - Can't Keep a Good Man Down
TTITLE5=Dolly Parton - I Will Always Love You
TTITLE6=George Jones - Walk Through This World With Me
TTITLE7=Dwight Yoakam - Let's Work Together
TTITLE8=Linda Ronstadt - Silver Threads and Golden Needles
TTITLE9=Restless Heart - I'll Still Be Loving You
TTITLE10=Alison Krauss - There Is a Reason
TTITLE11=Patty Loveless - I'm That Kind of Girl
TTITLE12=Shenandoah - Next to You, Next to Me
TTITLE13=Holly Dunn - Daddy's Hands
EXTD=
EXTT0=
EXTT1=
EXTT2=
EXTT3=
EXTT4=
EXTT5=
EXTT6=
EXTT7=
EXTT8=
EXTT9=
EXTT10=
EXTT11=
EXTT12=
EXTT13=
PLAYORDER=
